<?xml version="1.0" encoding="UTF-8"?>
<svg id="Layer_1" xmlns="http://www.w3.org/2000/svg" xmlns:xlink="http://www.w3.org/1999/xlink" version="1.1" viewBox="0 0 86 80">
  <!-- Generator: Adobe Illustrator 30.0.0, SVG Export Plug-In . SVG Version: 2.1.1 Build 123)  -->
  <defs>
    <style>
      .st0 {
        fill: none;
      }

      .st1 {
        clip-path: url(#clippath);
      }
    </style>
    <clipPath id="clippath">
      <rect class="st0" width="86" height="80"/>
    </clipPath>
  </defs>
  <g class="st1">
    <g>
      <path d="M2.58,26.9v24.42H.21v-25.06h4.53l7.61,24.42,7.61-24.42h4.53v25.06h-2.37v-24.42l-7.47,24.42h-4.6L2.58,26.9Z"/>
      <path d="M42.66,26.26h4.57l11.33,24.53v-24.53h2.37v25.06h-4.74l-11.15-24.42v24.42h-2.37v-25.06Z"/>
      <path d="M83.59,40.22v-2.86c0-5.01-2.05-8.77-7.51-8.77h-5.28v20.41h5.28c5.45,0,7.51-3.76,7.51-8.77ZM68.44,26.26h7.65c6.59,0,9.91,4.48,9.91,11.1v2.86c0,6.62-3.33,11.1-9.91,11.1h-7.65v-25.06Z"/>
      <path d="M7.47,56.87H0v-2.26h17.35v2.26h-7.44v22.81h-2.44v-22.81Z"/>
      <path d="M22.55,54.61h14.8v2.26h-12.39v8.74h11.29v2.26h-11.29v9.56h12.39v2.26h-14.8v-25.06Z"/>
      <path d="M42.03,69.51v-4.73c0-6.84,3.43-10.49,9.56-10.49,5.77,0,9.03,3.29,9.45,8.84h-2.44c-.42-4.01-2.48-6.52-7.01-6.52-4.99,0-7.15,2.97-7.15,8.16v4.73c0,5.19,2.16,8.16,7.15,8.16,4.43,0,6.55-2.36,6.94-6.23h2.44c-.5,5.41-3.72,8.56-9.38,8.56-6.13,0-9.56-3.65-9.56-10.49Z"/>
      <path d="M82.53,67.97h-12.99v11.71h-2.41v-25.06h2.41v11.03h12.99v-11.03h2.41v25.06h-2.41v-11.71Z"/>
      <path d="M42.11,21.66h3.18l.91,1.98h-6.15l.49-1.54-2.09-1.54-2.1,1.54.79,2.46-6.91,4.03-.98-1.71,5.54-3.23h-14.01s.62-1.97.62-1.97h13.4s-4.06-2.38-4.06-2.38l.98-1.72,4.06,2.37-3.45-6.05,1.7-.99,3.45,6.04v-10.53h1.96v10.53L50.26,0l1.69.99-10.82,18.96,13.03-7.61.98,1.72-13.03,7.61Z"/>
      <path d="M36.61,26.26l-9.36,29.82h2.52l9.39-29.82h-2.55Z"/>
    </g>
  </g>
</svg>