<svg width="154" height="27" viewBox="0 0 154 27" fill="none" xmlns="http://www.w3.org/2000/svg">
<g id="Page-1">
<g id="sager_log">
<path id="Path_1" d="M37.4433 0.105225H15.8435C9.00614 0.105225 7.50781 6.6447 7.50781 6.6447H32.9404L37.4433 0.105225Z" fill="black"/>
<path id="Path_2" d="M96.0043 0.105225H74.3391C67.5017 0.105225 66.0034 6.6447 66.0034 6.6447H93.6818L96.0043 0.105225Z" fill="black"/>
<path id="Path_3" d="M126.58 0.105225H98.9529L96.6304 6.6447H124.257L126.58 0.105225Z" fill="black"/>
<path id="Path_4" d="M30.6351 18.192C30.6895 17.2785 30.6349 16.3618 30.4725 15.4611C30.4443 15.298 30.4126 15.1357 30.3773 14.9743C30.1364 13.7751 29.6028 12.6533 28.8235 11.7078C28.6151 11.4647 28.3881 11.238 28.1447 11.0295C27.6452 10.6076 27.0869 10.2602 26.4871 9.99797C25.9068 9.74519 25.3007 9.55571 24.6795 9.43284C24.084 9.31465 23.4804 9.24164 22.8738 9.21442C22.6315 9.20258 22.3891 9.19666 22.1468 9.19666H7.37499C7.37499 16.817 15.1198 16.8282 15.1198 16.8282H21.0225C21.4874 16.8177 21.9216 17.0586 22.1572 17.4577C22.3927 17.8568 22.3927 18.3516 22.1572 18.7507C21.9216 19.1498 21.4874 19.3907 21.0225 19.3802H2.82251L0.5 25.9197H22.269C29.1057 25.9197 30.4738 19.3822 30.4745 19.3802C30.5555 18.9883 30.6091 18.5913 30.6351 18.192Z" fill="black"/>
<path id="Path_5" d="M49.4749 9.19531H40.8782L29.2346 26.1032H46.5219L52.0367 19.3775H42.5054L49.4749 9.19531Z" fill="black"/>
<path id="Path_6" d="M58.7465 6.6447L57.5714 0.105225H47.136L42.6331 6.6447H58.7465Z" fill="black"/>
<path id="Path_7" d="M83.4037 9.1947L77.1097 16.8263H81.4189L80.5471 19.2644H76.5459C71.0978 19.2644 72.343 14.3809 74.3846 9.73681C74.5413 9.38089 74.6153 9.19536 74.6153 9.19536H65.082C59.2936 24.819 69.0311 26.1033 78.5221 26.1033H86.7024L92.7076 9.19536L83.4037 9.1947Z" fill="black"/>
<path id="Path_8" d="M50.6064 9.19531L53.5734 26.1032H62.2428L59.2025 9.19531H50.6064Z" fill="black"/>
<path id="Path_9" d="M101.642 19.3789L102.548 16.8269H111.801L118.059 9.19531H108.398L102.885 15.8789L105.258 9.19729H95.7262L89.7209 26.1052H117.348L119.736 19.3795L101.642 19.3789Z" fill="black"/>
<path id="Path_10" d="M77.1096 16.8263L83.4037 9.1947H92.7076L86.4499 16.8263H77.1096Z" fill="#D90915"/>
<g id="Group_1">
<path id="Path_11" d="M145.007 0.105225H129.145L126.822 6.6447H153.236C151.806 0.166408 145.007 0.105225 145.007 0.105225Z" fill="black"/>
<path id="Path_12" d="M153.5 9.1947H138.638H138.683L133.17 15.8763L133.154 15.8809L135.58 9.1947H125.915L119.734 26.1026H129.442L132.111 18.7473L138.143 26.1026H149.213L141.107 16.8263H144.553C144.553 16.8263 153.5 16.8263 153.5 9.1947Z" fill="black"/>
</g>
</g>
</g>
</svg>
