<svg width="144" height="41" viewBox="0 0 144 41" fill="none" xmlns="http://www.w3.org/2000/svg">
<g id="Layer_1" clip-path="url(#clip0_44_462)">
<g id="Group">
<path id="Vector" d="M52.4491 23.3905C52.4491 22.6344 52.18 22.0533 51.6406 21.6486C51.1011 21.2438 50.1312 20.8159 48.7309 20.366C47.3292 19.9162 46.2199 19.4732 45.4032 19.037C43.175 17.8447 42.0616 16.2381 42.0616 14.2173C42.0616 13.1672 42.3596 12.2306 42.957 11.4061C43.5544 10.583 44.4126 9.93897 45.5301 9.47682C46.649 9.01467 47.9031 8.78223 49.2952 8.78223C50.6872 8.78223 51.9455 9.03381 53.0409 9.53698C54.1364 10.0401 54.9876 10.7498 55.5947 11.6672C56.2003 12.5847 56.5039 13.6252 56.5039 14.7915H52.4615C52.4615 13.9014 52.1786 13.2096 51.613 12.7146C51.0473 12.2196 50.2526 11.9735 49.2276 11.9735C48.2025 11.9735 47.4713 12.18 46.9235 12.5943C46.3758 13.0086 46.1013 13.5541 46.1013 14.2296C46.1013 14.8613 46.4227 15.3918 47.0643 15.8184C47.7058 16.245 48.6522 16.6456 49.9008 17.0202C52.2007 17.7053 53.8756 18.5557 54.9269 19.5703C55.9782 20.5848 56.5039 21.8496 56.5039 23.3618C56.5039 25.0436 55.8609 26.3644 54.5779 27.3215C53.2934 28.2786 51.5647 28.7572 49.3904 28.7572C47.881 28.7572 46.5069 28.4837 45.268 27.9354C44.029 27.3871 43.0826 26.6379 42.4314 25.6849C41.7802 24.7318 41.4546 23.6284 41.4546 22.3732H45.5094C45.5094 24.5185 46.8035 25.5919 49.389 25.5919C50.3506 25.5919 51.0998 25.3977 51.6392 25.0108C52.1786 24.6238 52.4477 24.0824 52.4477 23.3878L52.4491 23.3905Z" fill="white"/>
<path id="Vector_2" d="M71.0428 20.0665H63.2822V25.2746H72.3907V28.4932H59.2412V9.05017H72.3645V12.2948H63.2836V16.9286H71.0441V20.0665H71.0428Z" fill="white"/>
<path id="Vector_3" d="M90.726 28.4919H86.6836V20.1595H78.8017V28.4919H74.7593V9.05017H78.8017V16.9286H86.6836V9.05017H90.726V28.4919Z" fill="white"/>
<path id="Vector_4" d="M105.574 24.4857H98.4869L97.1389 28.4919H92.8413L100.144 9.05017H103.89L111.232 28.4919H106.934L105.574 24.4857ZM99.5782 21.2411H104.483L102.017 13.9643L99.5782 21.2411Z" fill="white"/>
<path id="Vector_5" d="M126.215 12.2948H120.207V28.4919H116.164V12.2948H110.236V9.05017H126.215V12.2948Z" fill="white"/>
<path id="Vector_6" d="M135.499 17.8091L139.581 9.05017H144L137.56 21.4407V28.4905H133.45V21.4407L127.01 9.05017H131.443L135.497 17.8091H135.499Z" fill="white"/>
</g>
<g id="Group_2">
<path id="Vector_7" d="M4.61475 19.722C4.68787 19.949 4.83411 20.1774 4.9569 20.3866C7.9811 25.5755 10.9943 30.7712 14.0336 35.9506C14.9083 37.4409 15.9997 38.7631 17.5449 39.63C18.8445 40.3588 20.2766 40.8797 21.7749 40.9823C23.4581 41.0971 25.1385 40.6254 26.6658 39.9554C29.0939 38.8903 30.8847 36.4209 31.507 33.9174C31.9595 32.0948 31.8408 30.1505 31.1455 28.4031C30.1549 25.9146 28.5159 24.0332 26.0615 22.8737C24.9039 22.3281 23.6733 22.0902 22.4137 22.0861C19.9979 22.0793 17.5821 22.1545 15.1663 22.1517C13.0651 22.149 10.808 22.2105 8.75509 21.7183C7.99766 21.5365 7.26368 21.2616 6.56696 20.9171C5.87851 20.5752 5.28388 20.0748 4.61613 19.7234L4.61475 19.722Z" fill="white"/>
<path id="Vector_8" d="M27.0809 21.2454C24.0333 15.7912 20.7938 10.4273 17.6634 5.0155C16.7887 3.52514 15.6974 2.20295 14.1522 1.33608C11.3874 -0.36211 7.92305 -0.408599 5.02991 1.01203C-2.13601 4.32228 -1.38824 15.0501 5.63558 18.0938C6.79173 18.6393 8.02238 18.8772 9.28338 18.8813C13.8142 18.9976 18.465 18.3905 22.942 19.2491C24.4761 19.5595 25.7896 20.4332 27.0823 21.2454H27.0809Z" fill="white"/>
<path id="Vector_9" d="M4.61475 19.722C7.66378 25.1749 10.9018 30.5402 14.0336 35.9506C14.9083 37.4409 15.9997 38.7631 17.5462 39.63C20.3083 41.3296 23.7754 41.3747 26.6671 39.9554C33.8344 36.6452 33.0853 25.9159 26.0615 22.8737C22.6385 21.3997 18.7824 22.3637 15.1663 22.1517C11.2799 22.2297 7.84865 22.1504 4.61613 19.7234L4.61475 19.722Z" fill="white"/>
</g>
</g>
<defs>
<clipPath id="clip0_44_462">
<rect width="144" height="41" fill="white"/>
</clipPath>
</defs>
</svg>
